<?xml version="1.0" encoding="UTF-8" standalone="no"?>
<svg
   xmlns:dc="http://purl.org/dc/elements/1.1/"
   xmlns:cc="http://creativecommons.org/ns#"
   xmlns:rdf="http://www.w3.org/1999/02/22-rdf-syntax-ns#"
   xmlns:svg="http://www.w3.org/2000/svg"
   xmlns="http://www.w3.org/2000/svg"
   xmlns:sodipodi="http://sodipodi.sourceforge.net/DTD/sodipodi-0.dtd"
   xmlns:inkscape="http://www.inkscape.org/namespaces/inkscape"
   viewBox="0 0 512 512"
   id="svg5787"
   version="1.1"
   inkscape:version="0.91 r13725"
   sodipodi:docname="coins_fin.svg">
  <metadata
     id="metadata5795">
    <rdf:RDF>
      <cc:Work
         rdf:about="">
        <dc:format>image/svg+xml</dc:format>
        <dc:type
           rdf:resource="http://purl.org/dc/dcmitype/StillImage" />
        <dc:title></dc:title>
      </cc:Work>
    </rdf:RDF>
  </metadata>
  <defs
     id="defs5793" />
  <sodipodi:namedview
     pagecolor="#ffffff"
     bordercolor="#666666"
     borderopacity="1"
     objecttolerance="10"
     gridtolerance="10"
     guidetolerance="10"
     inkscape:pageopacity="0"
     inkscape:pageshadow="2"
     inkscape:window-width="1920"
     inkscape:window-height="1017"
     id="namedview5791"
     showgrid="false"
     inkscape:zoom="1.65625"
     inkscape:cx="256"
     inkscape:cy="256"
     inkscape:window-x="-8"
     inkscape:window-y="-8"
     inkscape:window-maximized="1"
     inkscape:current-layer="svg5787"
     showguides="true"
     inkscape:guide-bbox="true">
    <sodipodi:guide
       position="230.64151,348.37736"
       orientation="1,0"
       id="guide5842" />
  </sodipodi:namedview>
  <path
     style="color:#000000;clip-rule:nonzero;display:inline;overflow:visible;visibility:visible;opacity:1;isolation:auto;mix-blend-mode:normal;color-interpolation:sRGB;color-interpolation-filters:linearRGB;solid-color:#000000;solid-opacity:1;fill:#000000;fill-opacity:1;fill-rule:nonzero;stroke:none;stroke-width:4.29300022;stroke-linecap:round;stroke-linejoin:miter;stroke-miterlimit:4;stroke-dasharray:none;stroke-dashoffset:0;stroke-opacity:1;color-rendering:auto;image-rendering:auto;shape-rendering:auto;text-rendering:auto;enable-background:accumulate"
     d="M 255.09375 7.8496094 A 247.24529 247.24529 0 0 0 7.8496094 255.09375 A 247.24529 247.24529 0 0 0 255.09375 502.33984 A 247.24529 247.24529 0 0 0 502.33984 255.09375 A 247.24529 247.24529 0 0 0 255.09375 7.8496094 z M 251.1543 56.25 L 272.77539 58.488281 L 266.63086 117.85547 L 245.00977 115.61719 L 251.1543 56.25 z M 286.57812 60.009766 L 308.19922 62.246094 L 302.05469 121.61133 L 280.43359 119.37305 L 286.57812 60.009766 z M 162.51172 108.24023 L 232.42188 115.47461 L 219.72461 238.18164 L 329.27344 125.49805 L 410.29102 133.88281 L 291.35156 248.35547 L 387.51562 405.50977 L 301.76758 396.63672 L 231.98047 279.74805 L 213.54297 297.89453 L 204.36914 386.55664 L 134.45898 379.32227 L 162.51172 108.24023 z M 217.6543 388.75781 L 239.27539 390.99609 L 233.13086 450.35938 L 211.50977 448.12305 L 217.6543 388.75781 z M 253.07812 392.51367 L 274.69922 394.75195 L 268.55469 454.11914 L 246.93359 451.88086 L 253.07812 392.51367 z "
     id="path5797" />
  <g
     transform="matrix(4.1427813,0.4287362,-0.4287362,4.1427813,782.44113,-259.30884)"
     style="font-style:normal;font-weight:normal;font-size:90px;line-height:125%;font-family:sans-serif;letter-spacing:0px;word-spacing:0px;fill:#ff0000;fill-opacity:1;stroke:none;stroke-width:1px;stroke-linecap:butt;stroke-linejoin:miter;stroke-opacity:1"
     id="flowRoot5799" />
</svg>
